<?xml version="1.0" encoding="utf-8"?>
<!-- Generator: Adobe Illustrator 18.0.0, SVG Export Plug-In . SVG Version: 6.00 Build 0)  -->
<!DOCTYPE svg PUBLIC "-//W3C//DTD SVG 1.1//EN" "http://www.w3.org/Graphics/SVG/1.1/DTD/svg11.dtd">
<svg version="1.1" id="Layer_1" xmlns="http://www.w3.org/2000/svg" xmlns:xlink="http://www.w3.org/1999/xlink" x="0px" y="0px"
	 viewBox="0 0 427.4 112.8" enable-background="new 0 0 427.4 112.8" xml:space="preserve">
<path fill="#FFFFFF" d="M117,56c0,8.5-1.5,16.2-4.4,23.2c-2.9,7-7,13-12.2,18c-5.2,5-11.4,8.8-18.5,11.6c-7.2,2.7-14.9,4.1-23.3,4.1
	c-8.4,0-16.1-1.4-23.2-4.1c-7.1-2.7-13.3-6.6-18.5-11.6c-5.2-5-9.3-11-12.2-18c-2.9-7-4.4-14.7-4.4-23.2c0-8.6,1.5-16.3,4.4-23.2
	c2.9-6.9,7-12.8,12.2-17.6c5.2-4.8,11.3-8.6,18.5-11.2C42.5,1.3,50.2,0,58.6,0C67,0,74.7,1.3,81.9,3.9c7.2,2.6,13.3,6.4,18.5,11.2
	c5.2,4.8,9.3,10.7,12.2,17.6C115.5,39.7,117,47.4,117,56z M89.3,56c0-4.6-0.8-9-2.3-13c-1.5-4-3.6-7.5-6.3-10.4
	c-2.7-2.9-5.9-5.1-9.7-6.8c-3.8-1.7-7.9-2.5-12.5-2.5s-8.7,0.8-12.4,2.5c-3.7,1.7-7,3.9-9.7,6.8c-2.7,2.9-4.8,6.3-6.3,10.4
	c-1.5,4-2.2,8.4-2.2,13c0,4.8,0.8,9.3,2.3,13.4c1.5,4.1,3.6,7.6,6.3,10.5c2.7,2.9,5.9,5.2,9.6,6.9c3.7,1.7,7.9,2.5,12.4,2.5
	s8.7-0.8,12.4-2.5c3.7-1.7,7-4,9.7-6.9c2.7-2.9,4.8-6.4,6.4-10.5C88.5,65.3,89.3,60.8,89.3,56z"/>
<path fill="#FFFFFF" d="M253.7,110l-23.1-42.5h-8.8V110h-25.4V2.9h40.8c5.1,0,10.2,0.5,15,1.6c4.9,1.1,9.3,2.9,13.2,5.4
	c3.9,2.5,7,5.8,9.3,10c2.3,4.1,3.5,9.3,3.5,15.4c0,7.3-2,13.4-5.9,18.3c-3.9,4.9-9.4,8.5-16.3,10.6l28,45.8H253.7z M252.6,35.7
	c0-2.5-0.5-4.6-1.6-6.1c-1.1-1.6-2.4-2.8-4.1-3.6c-1.7-0.9-3.5-1.4-5.6-1.7c-2.1-0.3-4.1-0.5-6-0.5h-13.8v25h12.3
	c2.1,0,4.3-0.2,6.5-0.5c2.2-0.4,4.2-1,6.1-1.9c1.8-0.9,3.3-2.2,4.5-3.9C252.1,40.6,252.6,38.4,252.6,35.7z"/>
<g>
	<path fill="#FFFFFF" d="M317.8,16.3c0,1.8-0.3,3.5-0.9,5c-0.6,1.5-1.5,2.8-2.6,3.9c-1.1,1.1-2.4,1.9-3.9,2.5
		c-1.5,0.6-3.2,0.9-5,0.9s-3.4-0.3-4.9-0.9s-2.8-1.5-3.9-2.5c-1.1-1.1-2-2.4-2.6-3.9c-0.6-1.5-0.9-3.2-0.9-5c0-1.8,0.3-3.5,0.9-5
		c0.6-1.5,1.5-2.8,2.6-3.9c1.1-1.1,2.4-1.9,3.9-2.5c1.5-0.6,3.2-0.9,4.9-0.9s3.4,0.3,5,0.9c1.5,0.6,2.8,1.4,3.9,2.5
		c1.1,1.1,2,2.4,2.6,3.9C317.5,12.8,317.8,14.4,317.8,16.3z M314.2,16.3c0-1.3-0.2-2.5-0.6-3.6c-0.4-1.1-1-2.1-1.8-3
		c-0.8-0.9-1.7-1.5-2.8-2c-1.1-0.5-2.3-0.7-3.7-0.7c-1.3,0-2.6,0.2-3.6,0.7c-1.1,0.5-2,1.2-2.8,2s-1.3,1.9-1.8,3
		c-0.4,1.1-0.6,2.3-0.6,3.6c0,1.3,0.2,2.5,0.6,3.7s1,2.1,1.8,3c0.8,0.8,1.7,1.5,2.8,2c1.1,0.5,2.3,0.7,3.6,0.7
		c1.3,0,2.6-0.2,3.7-0.7c1.1-0.5,2-1.1,2.8-2c0.8-0.8,1.4-1.8,1.8-3C314,18.8,314.2,17.5,314.2,16.3z"/>
	<path fill="#FFFFFF" d="M329.9,14.9h-3.6V28h-3.1V14.9h-3.1v-2.5h3.1V9.1c0-0.9,0.1-1.8,0.3-2.6s0.5-1.5,1-2c0.5-0.6,1.1-1,1.8-1.4
		s1.6-0.5,2.7-0.5c0.7,0,1.4,0.1,1.9,0.2l-0.4,2.7c-0.2-0.1-0.5-0.1-0.7-0.2c-0.2,0-0.5-0.1-0.8-0.1c-0.6,0-1.1,0.1-1.4,0.3
		c-0.4,0.2-0.6,0.5-0.8,0.8c-0.2,0.4-0.3,0.8-0.4,1.2c-0.1,0.5-0.1,0.9-0.1,1.4v3.3h3.6V14.9z"/>
	<path fill="#FFFFFF" d="M341.4,14.9h-3.6V28h-3.1V14.9h-3.1v-2.5h3.1V9.1c0-0.9,0.1-1.8,0.3-2.6s0.5-1.5,1-2c0.5-0.6,1.1-1,1.8-1.4
		s1.6-0.5,2.7-0.5c0.7,0,1.4,0.1,1.9,0.2l-0.4,2.7c-0.2-0.1-0.5-0.1-0.7-0.2c-0.2,0-0.5-0.1-0.8-0.1c-0.6,0-1.1,0.1-1.4,0.3
		c-0.4,0.2-0.6,0.5-0.8,0.8c-0.2,0.4-0.3,0.8-0.4,1.2c-0.1,0.5-0.1,0.9-0.1,1.4v3.3h3.6V14.9z"/>
	<path fill="#FFFFFF" d="M348.5,6.7c0,0.6-0.2,1-0.6,1.4c-0.4,0.4-0.9,0.6-1.5,0.6s-1.1-0.2-1.5-0.6c-0.4-0.4-0.6-0.9-0.6-1.4
		c0-0.6,0.2-1.1,0.6-1.4c0.4-0.4,0.9-0.6,1.5-0.6s1.1,0.2,1.5,0.6C348.3,5.6,348.5,6.1,348.5,6.7z M347.9,28h-3.1V12.3h3.1V28z"/>
	<path fill="#FFFFFF" d="M363.9,16.3c-0.3-0.5-0.8-0.9-1.5-1.3c-0.7-0.3-1.4-0.5-2.1-0.5c-0.8,0-1.5,0.2-2.2,0.5s-1.2,0.7-1.6,1.2
		c-0.4,0.5-0.8,1.1-1,1.8c-0.2,0.7-0.3,1.4-0.3,2.1s0.1,1.5,0.3,2.1c0.2,0.7,0.6,1.3,1,1.8c0.4,0.5,1,0.9,1.6,1.2
		c0.6,0.3,1.4,0.5,2.2,0.5c0.8,0,1.5-0.2,2.2-0.5c0.6-0.3,1.2-0.7,1.6-1.3l2.1,1.9c-0.7,0.8-1.5,1.4-2.5,1.8c-1,0.4-2.1,0.6-3.4,0.6
		c-1.2,0-2.3-0.2-3.3-0.6c-1-0.4-1.9-1-2.7-1.7c-0.7-0.7-1.3-1.6-1.8-2.6c-0.4-1-0.6-2.1-0.6-3.4c0-1.2,0.2-2.4,0.6-3.4
		c0.4-1,1-1.9,1.7-2.6c0.7-0.7,1.6-1.3,2.7-1.7c1-0.4,2.1-0.6,3.3-0.6c1.1,0,2.2,0.2,3.3,0.7c1.1,0.4,2,1.1,2.6,1.9L363.9,16.3z"/>
	<path fill="#FFFFFF" d="M383.4,20c0,0.2,0,0.4,0,0.5c0,0.2,0,0.4,0,0.5H371c0,0.7,0.2,1.3,0.4,1.9c0.3,0.6,0.6,1.1,1.1,1.5
		c0.5,0.4,1,0.8,1.6,1c0.6,0.2,1.2,0.4,1.9,0.4c1.1,0,2-0.2,2.7-0.7c0.8-0.5,1.4-1,1.8-1.7l2.2,1.7c-0.8,1.1-1.8,1.9-3,2.4
		c-1.1,0.5-2.4,0.8-3.8,0.8c-1.2,0-2.3-0.2-3.3-0.6s-1.9-1-2.6-1.7c-0.7-0.7-1.3-1.6-1.7-2.6c-0.4-1-0.6-2.1-0.6-3.4
		c0-1.2,0.2-2.3,0.6-3.3c0.4-1,1-1.9,1.7-2.6c0.7-0.7,1.6-1.3,2.6-1.7c1-0.4,2.1-0.6,3.2-0.6c1.1,0,2.2,0.2,3.1,0.6
		c0.9,0.4,1.7,0.9,2.4,1.6c0.6,0.7,1.1,1.6,1.5,2.6C383.2,17.6,383.4,18.8,383.4,20z M380.3,18.8c0-0.6-0.1-1.2-0.3-1.7
		c-0.2-0.5-0.5-1-0.8-1.4c-0.4-0.4-0.8-0.7-1.4-0.9c-0.5-0.2-1.2-0.3-1.9-0.3c-0.7,0-1.3,0.1-1.9,0.3c-0.6,0.2-1.1,0.5-1.5,0.9
		c-0.4,0.4-0.8,0.9-1.1,1.4c-0.3,0.5-0.4,1.1-0.5,1.7H380.3z"/>
	<path fill="#FFFFFF" d="M411.8,20.1c0,1.2-0.2,2.3-0.6,3.3c-0.4,1-1,1.9-1.8,2.6c-0.8,0.7-1.7,1.3-2.7,1.7c-1,0.4-2.1,0.6-3.3,0.6
		c-1.2,0-2.3-0.2-3.3-0.6c-1-0.4-1.9-1-2.7-1.7c-0.7-0.7-1.3-1.6-1.8-2.6c-0.4-1-0.6-2.1-0.6-3.3c0-1.2,0.2-2.3,0.6-3.3
		c0.4-1,1-1.9,1.8-2.6c0.7-0.7,1.6-1.3,2.7-1.7c1-0.4,2.1-0.6,3.3-0.6c1.2,0,2.3,0.2,3.3,0.6c1,0.4,1.9,1,2.7,1.7
		c0.8,0.7,1.4,1.6,1.8,2.6C411.6,17.8,411.8,18.9,411.8,20.1z M408.5,20.1c0-0.7-0.1-1.5-0.3-2.1c-0.2-0.7-0.6-1.3-1-1.8
		c-0.4-0.5-1-0.9-1.6-1.2c-0.6-0.3-1.4-0.5-2.2-0.5c-0.8,0-1.6,0.2-2.2,0.5c-0.6,0.3-1.2,0.7-1.6,1.2c-0.4,0.5-0.8,1.1-1,1.8
		c-0.2,0.7-0.3,1.4-0.3,2.1c0,0.7,0.1,1.5,0.3,2.1c0.2,0.7,0.6,1.3,1,1.8c0.4,0.5,1,0.9,1.6,1.3c0.6,0.3,1.4,0.5,2.2,0.5
		c0.8,0,1.6-0.2,2.2-0.5c0.6-0.3,1.2-0.7,1.6-1.3c0.4-0.5,0.8-1.1,1-1.8C408.4,21.6,408.5,20.9,408.5,20.1z"/>
	<path fill="#FFFFFF" d="M423.2,14.9h-3.6V28h-3.1V14.9h-3.1v-2.5h3.1V9.1c0-0.9,0.1-1.8,0.3-2.6s0.5-1.5,1-2c0.5-0.6,1.1-1,1.8-1.4
		s1.6-0.5,2.7-0.5c0.7,0,1.4,0.1,1.9,0.2l-0.4,2.7c-0.2-0.1-0.5-0.1-0.7-0.2c-0.2,0-0.5-0.1-0.8-0.1c-0.6,0-1.1,0.1-1.4,0.3
		c-0.4,0.2-0.6,0.5-0.8,0.8c-0.2,0.4-0.3,0.8-0.4,1.2c-0.1,0.5-0.1,0.9-0.1,1.4v3.3h3.6V14.9z"/>
	<path fill="#FFFFFF" d="M297.5,69h-3.3V45.6h14.6v2.9h-11.3v7.3h10.6v2.8h-10.6V69z"/>
	<path fill="#FFFFFF" d="M316.1,47.7c0,0.6-0.2,1-0.6,1.4c-0.4,0.4-0.9,0.6-1.5,0.6s-1.1-0.2-1.5-0.6c-0.4-0.4-0.6-0.9-0.6-1.4
		c0-0.6,0.2-1.1,0.6-1.4c0.4-0.4,0.9-0.6,1.5-0.6s1.1,0.2,1.5,0.6C315.9,46.6,316.1,47.1,316.1,47.7z M315.5,69h-3.1V53.3h3.1V69z"
		/>
	<path fill="#FFFFFF" d="M323.4,53.3c0,0.4,0.1,0.8,0.1,1.3c0,0.5,0,0.9,0,1.2h0.1c0.2-0.4,0.5-0.8,0.8-1.2c0.3-0.4,0.7-0.7,1.2-1
		c0.4-0.3,0.9-0.5,1.5-0.6c0.5-0.2,1.1-0.2,1.7-0.2c1,0,1.9,0.2,2.6,0.5c0.7,0.3,1.3,0.8,1.8,1.4c0.5,0.6,0.8,1.2,1.1,2
		c0.2,0.8,0.3,1.6,0.3,2.5V69h-3.1v-8.7c0-0.6,0-1.2-0.1-1.8c-0.1-0.6-0.3-1.1-0.5-1.5c-0.3-0.4-0.6-0.8-1.1-1.1
		c-0.5-0.3-1.1-0.4-1.8-0.4c-1.2,0-2.2,0.5-3,1.4c-0.8,0.9-1.2,2.2-1.2,3.7V69h-3.1V56.7c0-0.4,0-1,0-1.6c0-0.7-0.1-1.2-0.1-1.7
		H323.4z"/>
	<path fill="#FFFFFF" d="M349.1,58.8c0-1.2-0.4-2-1.1-2.6s-1.6-0.8-2.8-0.8c-0.9,0-1.7,0.2-2.5,0.5c-0.8,0.3-1.4,0.8-2,1.3l-1.6-2
		c0.8-0.7,1.7-1.3,2.8-1.7c1.1-0.4,2.3-0.6,3.6-0.6c1.1,0,2.1,0.2,2.9,0.5s1.5,0.8,2,1.3c0.5,0.6,0.9,1.2,1.2,1.9
		c0.3,0.7,0.4,1.6,0.4,2.4v6.8c0,0.5,0,1.1,0,1.7c0,0.6,0.1,1.1,0.2,1.4h-2.8c-0.2-0.7-0.3-1.5-0.3-2.2h-0.1
		c-0.6,0.8-1.3,1.5-2.2,1.9s-1.9,0.7-3.1,0.7c-0.6,0-1.3-0.1-1.9-0.2c-0.7-0.2-1.3-0.4-1.8-0.8c-0.5-0.4-1-0.9-1.4-1.5
		c-0.4-0.6-0.5-1.4-0.5-2.3c0-1.2,0.3-2.1,1-2.8c0.6-0.7,1.5-1.2,2.5-1.6c1-0.4,2.2-0.6,3.5-0.7c1.3-0.1,2.6-0.2,3.9-0.2V58.8z
		 M348.3,61.5c-0.8,0-1.6,0-2.4,0.1c-0.8,0.1-1.6,0.2-2.2,0.4c-0.7,0.2-1.2,0.5-1.7,0.9s-0.7,0.9-0.7,1.6c0,0.5,0.1,0.8,0.3,1.2
		c0.2,0.3,0.4,0.6,0.7,0.8c0.3,0.2,0.6,0.3,1,0.4c0.4,0.1,0.8,0.1,1.2,0.1c1.5,0,2.6-0.4,3.3-1.3c0.8-0.9,1.2-2,1.2-3.3v-0.8H348.3z
		"/>
	<path fill="#FFFFFF" d="M359.7,53.3c0,0.4,0.1,0.8,0.1,1.3c0,0.5,0,0.9,0,1.2h0.1c0.2-0.4,0.5-0.8,0.8-1.2c0.3-0.4,0.7-0.7,1.2-1
		c0.4-0.3,0.9-0.5,1.5-0.6c0.5-0.2,1.1-0.2,1.7-0.2c1,0,1.9,0.2,2.6,0.5c0.7,0.3,1.3,0.8,1.8,1.4c0.5,0.6,0.8,1.2,1.1,2
		c0.2,0.8,0.3,1.6,0.3,2.5V69h-3.1v-8.7c0-0.6,0-1.2-0.1-1.8c-0.1-0.6-0.3-1.1-0.5-1.5c-0.3-0.4-0.6-0.8-1.1-1.1
		c-0.5-0.3-1.1-0.4-1.8-0.4c-1.2,0-2.2,0.5-3,1.4c-0.8,0.9-1.2,2.2-1.2,3.7V69h-3.1V56.7c0-0.4,0-1,0-1.6c0-0.7-0.1-1.2-0.1-1.7
		H359.7z"/>
	<path fill="#FFFFFF" d="M386.7,57.3c-0.3-0.5-0.8-0.9-1.5-1.3c-0.7-0.3-1.4-0.5-2.1-0.5c-0.8,0-1.5,0.2-2.2,0.5s-1.2,0.7-1.6,1.2
		c-0.4,0.5-0.8,1.1-1,1.8c-0.2,0.7-0.3,1.4-0.3,2.1s0.1,1.5,0.3,2.1c0.2,0.7,0.6,1.3,1,1.8c0.4,0.5,1,0.9,1.6,1.2
		c0.6,0.3,1.4,0.5,2.2,0.5c0.8,0,1.5-0.2,2.2-0.5c0.6-0.3,1.2-0.7,1.6-1.3L389,67c-0.7,0.8-1.5,1.4-2.5,1.8c-1,0.4-2.1,0.6-3.4,0.6
		c-1.2,0-2.3-0.2-3.3-0.6c-1-0.4-1.9-1-2.7-1.7c-0.7-0.7-1.3-1.6-1.8-2.6c-0.4-1-0.6-2.1-0.6-3.4c0-1.2,0.2-2.4,0.6-3.4
		c0.4-1,1-1.9,1.7-2.6c0.7-0.7,1.6-1.3,2.7-1.7c1-0.4,2.1-0.6,3.3-0.6c1.1,0,2.2,0.2,3.3,0.7c1.1,0.4,2,1.1,2.6,1.9L386.7,57.3z"/>
	<path fill="#FFFFFF" d="M395.5,47.7c0,0.6-0.2,1-0.6,1.4c-0.4,0.4-0.9,0.6-1.5,0.6s-1.1-0.2-1.5-0.6c-0.4-0.4-0.6-0.9-0.6-1.4
		c0-0.6,0.2-1.1,0.6-1.4c0.4-0.4,0.9-0.6,1.5-0.6s1.1,0.2,1.5,0.6C395.3,46.6,395.5,47.1,395.5,47.7z M395,69h-3.1V53.3h3.1V69z"/>
	<path fill="#FFFFFF" d="M409.7,58.8c0-1.2-0.4-2-1.1-2.6s-1.6-0.8-2.8-0.8c-0.9,0-1.7,0.2-2.5,0.5c-0.8,0.3-1.4,0.8-2,1.3l-1.6-2
		c0.8-0.7,1.7-1.3,2.8-1.7c1.1-0.4,2.3-0.6,3.6-0.6c1.1,0,2.1,0.2,2.9,0.5s1.5,0.8,2,1.3c0.5,0.6,0.9,1.2,1.2,1.9
		c0.3,0.7,0.4,1.6,0.4,2.4v6.8c0,0.5,0,1.1,0,1.7c0,0.6,0.1,1.1,0.2,1.4h-2.8c-0.2-0.7-0.3-1.5-0.3-2.2h-0.1
		c-0.6,0.8-1.3,1.5-2.2,1.9s-1.9,0.7-3.1,0.7c-0.6,0-1.3-0.1-1.9-0.2c-0.7-0.2-1.3-0.4-1.8-0.8c-0.5-0.4-1-0.9-1.4-1.5
		c-0.4-0.6-0.5-1.4-0.5-2.3c0-1.2,0.3-2.1,1-2.8c0.6-0.7,1.5-1.2,2.5-1.6c1-0.4,2.2-0.6,3.5-0.7c1.3-0.1,2.6-0.2,3.9-0.2V58.8z
		 M409,61.5c-0.8,0-1.6,0-2.4,0.1c-0.8,0.1-1.6,0.2-2.2,0.4c-0.7,0.2-1.2,0.5-1.7,0.9s-0.7,0.9-0.7,1.6c0,0.5,0.1,0.8,0.3,1.2
		c0.2,0.3,0.4,0.6,0.7,0.8c0.3,0.2,0.6,0.3,1,0.4c0.4,0.1,0.8,0.1,1.2,0.1c1.5,0,2.6-0.4,3.3-1.3c0.8-0.9,1.2-2,1.2-3.3v-0.8H409z"
		/>
	<path fill="#FFFFFF" d="M420.6,69h-3.1V44h3.1V69z"/>
	<path fill="#FFFFFF" d="M297.5,110h-3.3V86.6h7.5c1.1,0,2.2,0.1,3.2,0.3c1,0.2,1.9,0.6,2.7,1.1c0.8,0.5,1.4,1.2,1.8,2
		c0.4,0.8,0.7,1.8,0.7,3c0,1.7-0.5,3.1-1.6,4.2c-1.1,1.1-2.4,1.7-4.1,2l6.5,10.7h-4L301,99.6h-3.5V110z M297.5,96.8h3.8
		c0.8,0,1.5-0.1,2.2-0.2c0.7-0.1,1.2-0.3,1.7-0.6s0.9-0.7,1.2-1.2s0.4-1.1,0.4-1.8c0-0.7-0.1-1.3-0.4-1.8c-0.3-0.5-0.7-0.9-1.1-1.1
		c-0.5-0.3-1-0.5-1.7-0.6c-0.6-0.1-1.3-0.2-2-0.2h-4V96.8z"/>
	<path fill="#FFFFFF" d="M328.2,102c0,0.2,0,0.4,0,0.5c0,0.2,0,0.4,0,0.5h-12.4c0,0.7,0.2,1.3,0.4,1.9c0.3,0.6,0.6,1.1,1.1,1.5
		c0.5,0.4,1,0.8,1.6,1c0.6,0.2,1.2,0.4,1.9,0.4c1.1,0,2-0.2,2.7-0.7c0.8-0.5,1.4-1,1.8-1.7l2.2,1.7c-0.8,1.1-1.8,1.9-3,2.4
		c-1.1,0.5-2.4,0.8-3.8,0.8c-1.2,0-2.3-0.2-3.3-0.6s-1.9-1-2.6-1.7c-0.7-0.7-1.3-1.6-1.7-2.6c-0.4-1-0.6-2.1-0.6-3.4
		c0-1.2,0.2-2.3,0.6-3.3c0.4-1,1-1.9,1.7-2.6c0.7-0.7,1.6-1.3,2.6-1.7c1-0.4,2.1-0.6,3.2-0.6c1.1,0,2.2,0.2,3.1,0.6
		c0.9,0.4,1.7,0.9,2.4,1.6c0.6,0.7,1.1,1.6,1.5,2.6C328.1,99.6,328.2,100.8,328.2,102z M325.1,100.8c0-0.6-0.1-1.2-0.3-1.7
		c-0.2-0.5-0.5-1-0.8-1.4s-0.8-0.7-1.4-0.9c-0.5-0.2-1.2-0.3-1.9-0.3c-0.7,0-1.3,0.1-1.9,0.3c-0.6,0.2-1.1,0.5-1.5,0.9
		s-0.8,0.9-1.1,1.4c-0.3,0.5-0.4,1.1-0.5,1.7H325.1z"/>
	<path fill="#FFFFFF" d="M340.8,98.3c-0.4-0.6-0.8-1-1.5-1.4s-1.4-0.5-2.1-0.5c-0.4,0-0.7,0-1.1,0.1c-0.4,0.1-0.7,0.2-0.9,0.4
		s-0.5,0.4-0.7,0.6c-0.2,0.3-0.2,0.6-0.2,0.9c0,0.7,0.3,1.1,0.9,1.5c0.6,0.3,1.5,0.6,2.7,0.9c0.7,0.2,1.4,0.4,2.1,0.6
		c0.6,0.2,1.2,0.5,1.7,0.9c0.5,0.4,0.8,0.8,1.1,1.3c0.3,0.5,0.4,1.1,0.4,1.8c0,0.9-0.2,1.7-0.5,2.3c-0.4,0.6-0.8,1.2-1.4,1.6
		c-0.6,0.4-1.2,0.7-2,0.9s-1.5,0.3-2.3,0.3c-1.2,0-2.3-0.2-3.5-0.7c-1.1-0.5-2.1-1.2-2.8-2.1l2.2-1.9c0.4,0.6,1,1.1,1.7,1.6
		c0.7,0.4,1.5,0.6,2.4,0.6c0.4,0,0.8,0,1.1-0.1c0.4-0.1,0.7-0.2,1-0.4c0.3-0.2,0.5-0.4,0.7-0.7c0.2-0.3,0.3-0.6,0.3-1.1
		c0-0.7-0.3-1.3-1-1.6c-0.7-0.4-1.7-0.7-3.1-1c-0.5-0.1-1.1-0.3-1.6-0.5c-0.5-0.2-1-0.4-1.5-0.8c-0.4-0.3-0.8-0.7-1.1-1.2
		c-0.3-0.5-0.4-1.1-0.4-1.8c0-0.8,0.2-1.6,0.5-2.2s0.8-1.1,1.3-1.5c0.5-0.4,1.2-0.7,1.9-0.9c0.7-0.2,1.4-0.3,2.2-0.3
		c1.1,0,2.2,0.2,3.3,0.7c1,0.4,1.9,1.1,2.4,1.9L340.8,98.3z"/>
	<path fill="#FFFFFF" d="M361.4,102c0,0.2,0,0.4,0,0.5c0,0.2,0,0.4,0,0.5H349c0,0.7,0.2,1.3,0.4,1.9c0.3,0.6,0.6,1.1,1.1,1.5
		c0.5,0.4,1,0.8,1.6,1c0.6,0.2,1.2,0.4,1.9,0.4c1.1,0,2-0.2,2.7-0.7c0.8-0.5,1.4-1,1.8-1.7l2.2,1.7c-0.8,1.1-1.8,1.9-3,2.4
		c-1.1,0.5-2.4,0.8-3.8,0.8c-1.2,0-2.3-0.2-3.3-0.6s-1.9-1-2.6-1.7c-0.7-0.7-1.3-1.6-1.7-2.6c-0.4-1-0.6-2.1-0.6-3.4
		c0-1.2,0.2-2.3,0.6-3.3c0.4-1,1-1.9,1.7-2.6c0.7-0.7,1.6-1.3,2.6-1.7c1-0.4,2.1-0.6,3.2-0.6c1.1,0,2.2,0.2,3.1,0.6
		c0.9,0.4,1.7,0.9,2.4,1.6c0.6,0.7,1.1,1.6,1.5,2.6C361.3,99.6,361.4,100.8,361.4,102z M358.3,100.8c0-0.6-0.1-1.2-0.3-1.7
		c-0.2-0.5-0.5-1-0.8-1.4s-0.8-0.7-1.4-0.9c-0.5-0.2-1.2-0.3-1.9-0.3c-0.7,0-1.3,0.1-1.9,0.3c-0.6,0.2-1.1,0.5-1.5,0.9
		s-0.8,0.9-1.1,1.4c-0.3,0.5-0.4,1.1-0.5,1.7H358.3z"/>
	<path fill="#FFFFFF" d="M375.1,99.8c0-1.2-0.4-2-1.1-2.6s-1.6-0.8-2.8-0.8c-0.9,0-1.7,0.2-2.5,0.5c-0.8,0.3-1.4,0.8-2,1.3l-1.6-2
		c0.8-0.7,1.7-1.3,2.8-1.7c1.1-0.4,2.3-0.6,3.6-0.6c1.1,0,2.1,0.2,2.9,0.5s1.5,0.8,2,1.3c0.5,0.6,0.9,1.2,1.2,1.9
		c0.3,0.7,0.4,1.6,0.4,2.4v6.8c0,0.5,0,1.1,0,1.7c0,0.6,0.1,1.1,0.2,1.4h-2.8c-0.2-0.7-0.3-1.5-0.3-2.2h-0.1
		c-0.6,0.8-1.3,1.5-2.2,1.9s-1.9,0.7-3.1,0.7c-0.6,0-1.3-0.1-1.9-0.2c-0.7-0.2-1.3-0.4-1.8-0.8c-0.5-0.4-1-0.9-1.4-1.5
		c-0.4-0.6-0.5-1.4-0.5-2.3c0-1.2,0.3-2.1,1-2.8c0.6-0.7,1.5-1.2,2.5-1.6c1-0.4,2.2-0.6,3.5-0.7c1.3-0.1,2.6-0.2,3.9-0.2V99.8z
		 M374.4,102.5c-0.8,0-1.6,0-2.4,0.1c-0.8,0.1-1.6,0.2-2.2,0.4c-0.7,0.2-1.2,0.5-1.7,0.9s-0.7,0.9-0.7,1.6c0,0.5,0.1,0.8,0.3,1.2
		c0.2,0.3,0.4,0.6,0.7,0.8c0.3,0.2,0.6,0.3,1,0.4c0.4,0.1,0.8,0.1,1.2,0.1c1.5,0,2.6-0.4,3.3-1.3c0.8-0.9,1.2-2,1.2-3.3v-0.8H374.4z
		"/>
	<path fill="#FFFFFF" d="M382.9,97.7c0-0.4,0-1,0-1.6c0-0.7-0.1-1.2-0.1-1.7h2.9c0,0.4,0.1,0.9,0.1,1.4c0,0.5,0,0.9,0,1.3h0.1
		c0.4-0.9,1.1-1.7,1.9-2.2c0.8-0.6,1.8-0.8,2.9-0.8c0.5,0,0.9,0,1.2,0.1l-0.1,2.9c-0.4-0.1-0.9-0.2-1.4-0.2c-0.7,0-1.4,0.1-1.9,0.4
		c-0.5,0.3-1,0.6-1.4,1.1s-0.6,1-0.8,1.6c-0.2,0.6-0.3,1.2-0.3,1.9v8.2h-3.1V97.7z"/>
	<path fill="#FFFFFF" d="M405.5,98.3c-0.3-0.5-0.8-0.9-1.5-1.3c-0.7-0.3-1.4-0.5-2.1-0.5c-0.8,0-1.5,0.2-2.2,0.5s-1.2,0.7-1.6,1.2
		c-0.4,0.5-0.8,1.1-1,1.8c-0.2,0.7-0.3,1.4-0.3,2.1s0.1,1.5,0.3,2.1c0.2,0.7,0.6,1.3,1,1.8c0.4,0.5,1,0.9,1.6,1.2
		c0.6,0.3,1.4,0.5,2.2,0.5c0.8,0,1.5-0.2,2.2-0.5c0.6-0.3,1.2-0.7,1.6-1.3l2.1,1.9c-0.7,0.8-1.5,1.4-2.5,1.8c-1,0.4-2.1,0.6-3.4,0.6
		c-1.2,0-2.3-0.2-3.3-0.6c-1-0.4-1.9-1-2.7-1.7c-0.7-0.7-1.3-1.6-1.8-2.6c-0.4-1-0.6-2.1-0.6-3.4c0-1.2,0.2-2.4,0.6-3.4
		c0.4-1,1-1.9,1.7-2.6c0.7-0.7,1.6-1.3,2.7-1.7c1-0.4,2.1-0.6,3.3-0.6c1.1,0,2.2,0.2,3.3,0.7c1.1,0.4,2,1.1,2.6,1.9L405.5,98.3z"/>
	<path fill="#FFFFFF" d="M413.9,96.7c0.4-0.8,1-1.4,1.9-2c0.9-0.5,1.9-0.8,3-0.8c1,0,1.9,0.2,2.6,0.5c0.7,0.3,1.3,0.8,1.8,1.4
		c0.5,0.6,0.8,1.2,1.1,2c0.2,0.8,0.3,1.6,0.3,2.5v9.7h-3.1v-8.6c0-0.6,0-1.2-0.1-1.8c-0.1-0.6-0.3-1.1-0.5-1.5
		c-0.3-0.4-0.6-0.8-1.1-1.1s-1-0.4-1.8-0.4c-1.2,0-2.2,0.5-3,1.4s-1.2,2.2-1.2,3.7v8.3h-3.1V85h3.1L413.9,96.7L413.9,96.7z"/>
</g>
<g>
	<rect x="121.4" y="2.9" fill="#CCCCCC" width="70.5" height="22.1"/>
	<rect x="121.4" y="47" fill="#CCCCCC" width="61.7" height="21.3"/>
	<rect x="121.4" y="90.5" fill="#CCCCCC" width="25.6" height="19.4"/>
</g>
<g>
</g>
<g>
</g>
<g>
</g>
<g>
</g>
<g>
</g>
<g>
</g>
</svg>
